<svg width="496" height="54" viewBox="0 0 496 54" fill="none" xmlns="http://www.w3.org/2000/svg">
  <path d="M6.86328 53V2.58594H34.4609C42.6172 2.58594 46.6953 6.67578 46.6953 14.8555V22.0273C46.6953 30.207 42.6172 34.2969 34.4609 34.2969H14.0703V53H6.86328ZM14.0703 27.0898H34.0742C35.9961 27.0898 37.3789 26.668 38.2227 25.8242C39.0664 24.9805 39.4883 23.5977 39.4883 21.6758V15.207C39.4883 13.2852 39.0664 11.9023 38.2227 11.0586C37.3789 10.2148 35.9961 9.79297 34.0742 9.79297H14.0703V27.0898ZM96.6172 20.5859C96.6172 27.6172 93.6172 31.625 87.6172 32.6094L97.1094 53H89.1289L79.7773 32.8555H63.9922V53H56.7852V2.58594H84.3828C92.5391 2.58594 96.6172 6.67578 96.6172 14.8555V20.5859ZM63.9922 25.6484H83.9961C85.918 25.6484 87.3008 25.2266 88.1445 24.3828C88.9883 23.5391 89.4102 22.1562 89.4102 20.2344V15.207C89.4102 13.2852 88.9883 11.9023 88.1445 11.0586C87.3008 10.2148 85.918 9.79297 83.9961 9.79297H63.9922V25.6484ZM151.883 45.793C151.883 46.7773 151.695 47.7148 151.32 48.6055C150.945 49.4727 150.43 50.2344 149.773 50.8906C149.117 51.5469 148.344 52.0625 147.453 52.4375C146.586 52.8125 145.66 53 144.676 53H115.883C114.898 53 113.961 52.8125 113.07 52.4375C112.203 52.0625 111.441 51.5469 110.785 50.8906C110.129 50.2344 109.613 49.4727 109.238 48.6055C108.863 47.7148 108.676 46.7773 108.676 45.793V9.79297C108.676 8.80859 108.863 7.88281 109.238 7.01562C109.613 6.125 110.129 5.36328 110.785 4.73047C111.441 4.07422 112.203 3.55859 113.07 3.18359C113.961 2.78516 114.898 2.58594 115.883 2.58594H144.676C145.66 2.58594 146.586 2.78516 147.453 3.18359C148.344 3.55859 149.117 4.07422 149.773 4.73047C150.43 5.36328 150.945 6.125 151.32 7.01562C151.695 7.88281 151.883 8.80859 151.883 9.79297V45.793ZM115.883 9.79297V45.793H144.676V9.79297H115.883ZM174.945 53L160.531 2.58594H167.738L178.918 42.6992L190.062 2.58594H197.27L208.414 42.6992L219.594 2.58594H226.801L212.387 53H204.477L193.684 15.207L182.855 53H174.945ZM275.281 20.5859C275.281 27.6172 272.281 31.625 266.281 32.6094L275.773 53H267.793L258.441 32.8555H242.656V53H235.449V2.58594H263.047C271.203 2.58594 275.281 6.67578 275.281 14.8555V20.5859ZM242.656 25.6484H262.66C264.582 25.6484 265.965 25.2266 266.809 24.3828C267.652 23.5391 268.074 22.1562 268.074 20.2344V15.207C268.074 13.2852 267.652 11.9023 266.809 11.0586C265.965 10.2148 264.582 9.79297 262.66 9.79297H242.656V25.6484ZM287.34 2.58594H324.078V9.79297H294.547V24.207H319.754V31.4141H294.547V45.793H324.078V53H287.34V2.58594ZM342.078 53H334.871V2.58594H342.078L372.383 41.6797V2.58594H379.59V53H372.383L342.078 13.9062V53ZM392.527 9.79297C392.527 8.80859 392.715 7.88281 393.09 7.01562C393.465 6.125 393.98 5.36328 394.637 4.73047C395.293 4.07422 396.055 3.55859 396.922 3.18359C397.812 2.78516 398.75 2.58594 399.734 2.58594H427.086C428.07 2.58594 428.996 2.78516 429.863 3.18359C430.754 3.55859 431.527 4.07422 432.184 4.73047C432.84 5.36328 433.355 6.125 433.73 7.01562C434.105 7.88281 434.293 8.80859 434.293 9.79297V16.2969H427.086V9.79297H399.734V45.793H427.086V39.3242H434.293V45.793C434.293 46.7773 434.105 47.7148 433.73 48.6055C433.355 49.4727 432.84 50.2344 432.184 50.8906C431.527 51.5469 430.754 52.0625 429.863 52.4375C428.996 52.8125 428.07 53 427.086 53H399.734C398.75 53 397.812 52.8125 396.922 52.4375C396.055 52.0625 395.293 51.5469 394.637 50.8906C393.98 50.2344 393.465 49.4727 393.09 48.6055C392.715 47.7148 392.527 46.7773 392.527 45.793V9.79297ZM489.102 2.58594V53H481.895V31.4141H453.031V53H445.824V2.58594H453.031V24.207H481.895V2.58594H489.102Z" fill="#419A5A"/>
  <line x1="3" y1="37.5" x2="496" y2="37.4999" stroke="white"/>
  <line x1="-3.18295e-08" y1="53.5" x2="493" y2="53.4999" stroke="white"/>
  <path d="M3 24L496 23.9999" stroke="white"/>
  <line x1="-3.18295e-08" y1="13.5" x2="493" y2="13.4999" stroke="white"/>
</svg>
